<?xml version="1.0" standalone="no"?>
<!DOCTYPE svg PUBLIC "-//W3C//DTD SVG 20010904//EN"
 "http://www.w3.org/TR/2001/REC-SVG-20010904/DTD/svg10.dtd">
<svg version="1.0" xmlns="http://www.w3.org/2000/svg"
 width="1440.000000pt" height="1440.000000pt" viewBox="0 0 1440.000000 1440.000000"
 preserveAspectRatio="xMidYMid meet">

<g transform="translate(0.000000,1440.000000) scale(0.100000,-0.100000)"
fill="#000000" stroke="none">
<path d="M0 7200 l0 -7200 7200 0 7200 0 0 7200 0 7200 -7200 0 -7200 0 0
-7200z m7535 6210 c332 -15 652 -54 920 -111 90 -19 219 -49 255 -58 126 -33
176 -47 265 -73 795 -236 1569 -653 2215 -1194 232 -194 500 -458 735 -725
158 -178 400 -509 548 -747 450 -726 726 -1461 866 -2312 5 -30 14 -84 21
-120 6 -36 15 -108 20 -160 6 -52 15 -144 21 -205 15 -143 15 -877 0 -1020
-34 -334 -29 -295 -66 -520 -34 -200 -85 -439 -120 -562 -9 -29 -23 -79 -32
-110 -48 -171 -180 -546 -238 -678 -8 -16 -34 -76 -59 -132 -191 -430 -434
-838 -746 -1253 -218 -290 -577 -672 -865 -920 -61 -52 -112 -97 -115 -100 -3
-3 -36 -30 -75 -61 -228 -182 -546 -404 -745 -517 -19 -11 -80 -45 -135 -77
-479 -274 -1053 -496 -1620 -625 -181 -41 -189 -43 -470 -90 -61 -11 -144 -20
-355 -42 -155 -16 -940 -15 -1080 1 -58 7 -145 16 -195 21 -49 5 -115 14 -145
19 -30 5 -100 17 -155 26 -198 33 -439 85 -562 120 -29 9 -79 23 -110 31 -130
36 -470 149 -538 179 -16 7 -70 29 -120 48 -332 129 -767 358 -1109 585 -1075
712 -1886 1714 -2351 2907 -68 173 -175 501 -201 615 -6 30 -20 82 -29 115
-133 483 -201 1162 -176 1770 26 646 118 1162 313 1750 177 532 410 1011 720
1480 79 118 102 150 222 310 274 363 626 729 971 1010 27 22 62 52 79 66 126
106 474 346 681 471 176 106 503 278 631 331 32 14 97 42 144 62 127 55 274
110 470 177 167 57 223 74 335 103 28 7 84 22 125 33 182 48 442 100 640 128
391 55 789 73 1215 54z"/>
<path d="M6865 13260 c-157 -8 -227 -15 -405 -40 -36 -5 -87 -12 -115 -15 -67
-8 -212 -32 -305 -51 -105 -22 -480 -112 -510 -124 -14 -5 -72 -23 -130 -41
-379 -114 -907 -344 -1225 -534 -44 -26 -100 -59 -125 -73 -94 -53 -368 -238
-499 -337 -284 -214 -418 -330 -672 -584 -347 -348 -587 -649 -845 -1061 -130
-208 -300 -527 -369 -690 -15 -36 -36 -83 -46 -105 -36 -78 -113 -283 -171
-455 -55 -161 -74 -228 -129 -440 -65 -246 -121 -563 -149 -840 -5 -52 -12
-111 -15 -130 -24 -149 -21 -907 5 -1115 42 -348 57 -447 97 -643 26 -131 97
-430 112 -472 5 -14 24 -72 41 -130 91 -301 210 -596 372 -920 164 -329 346
-626 544 -889 44 -57 89 -117 100 -133 68 -92 306 -358 455 -507 371 -372 784
-691 1244 -961 149 -87 537 -282 695 -348 334 -140 764 -276 1080 -342 30 -7
84 -18 120 -26 241 -53 653 -101 972 -113 457 -17 927 18 1393 104 11 3 38 8
60 14 22 5 72 16 110 25 354 78 692 188 1049 340 122 52 452 216 534 265 29
17 55 31 57 31 9 0 330 203 425 268 898 620 1636 1504 2095 2511 161 353 305
772 380 1106 14 61 29 126 34 145 26 99 35 149 66 355 102 670 92 1341 -30
2005 -8 41 -17 91 -20 110 -3 19 -10 51 -15 70 -6 19 -19 76 -31 125 -68 296
-198 684 -331 985 -59 134 -228 475 -264 531 -13 21 -24 41 -24 44 0 25 -306
492 -434 660 -394 520 -809 921 -1391 1345 -266 194 -691 432 -1059 594 -211
94 -593 231 -751 271 -27 7 -93 24 -145 38 -159 41 -276 66 -475 101 -199 35
-216 38 -505 66 -139 14 -658 20 -855 10z m745 -390 c1168 -80 2253 -514 3185
-1273 232 -190 599 -560 785 -792 35 -44 80 -100 100 -125 20 -25 47 -61 60
-80 13 -19 27 -37 31 -40 14 -10 237 -349 306 -466 236 -395 451 -887 573
-1314 12 -41 25 -86 30 -100 22 -69 83 -325 99 -420 88 -509 95 -592 95 -1075
0 -478 -8 -568 -94 -1070 -5 -27 -16 -79 -24 -115 -8 -36 -20 -87 -27 -115
-38 -170 -131 -477 -189 -625 -12 -30 -25 -66 -30 -80 -97 -291 -372 -816
-608 -1160 -221 -323 -470 -619 -743 -885 -125 -121 -358 -328 -440 -390 -405
-308 -679 -483 -1019 -649 -194 -95 -319 -150 -490 -215 -438 -168 -852 -269
-1365 -333 -162 -20 -225 -22 -620 -23 -366 0 -464 3 -585 18 -233 29 -477 68
-605 97 -146 32 -207 48 -345 86 -408 115 -705 230 -1085 424 -994 506 -1804
1275 -2355 2235 -58 101 -202 387 -259 516 -25 56 -141 346 -145 364 -2 6 -6
17 -9 25 -9 23 -52 157 -80 250 -51 166 -80 281 -122 485 -9 44 -21 98 -26
120 -14 65 -47 305 -71 525 -16 152 -17 875 0 1025 22 206 42 360 58 450 8 50
18 104 20 120 3 17 9 46 14 65 5 19 18 80 30 135 24 114 25 116 84 325 164
574 397 1078 731 1580 180 270 313 440 516 659 437 473 895 834 1442 1136 133
73 418 215 432 215 3 0 28 11 57 24 311 142 775 287 1178 367 30 6 73 15 95
20 108 25 509 73 690 82 150 8 594 6 725 -3z"/>
<path d="M6845 12720 c-921 -61 -1837 -366 -2645 -878 -136 -87 -157 -101
-332 -230 -330 -244 -709 -604 -948 -901 -19 -24 -56 -69 -81 -100 -97 -118
-343 -475 -400 -580 -13 -24 -28 -51 -34 -60 -263 -424 -539 -1166 -631 -1695
-8 -50 -17 -92 -19 -95 -5 -9 -42 -278 -61 -446 -27 -236 -24 -858 5 -1100 35
-295 70 -495 131 -765 30 -132 145 -506 195 -630 7 -19 37 -93 65 -165 170
-427 464 -932 759 -1300 203 -254 470 -534 701 -734 213 -186 566 -443 750
-549 19 -11 87 -50 150 -87 117 -68 405 -212 517 -259 35 -14 86 -37 115 -50
166 -75 617 -220 858 -275 793 -182 1644 -194 2400 -34 186 39 244 54 500 128
129 38 365 125 543 201 852 363 1653 997 2213 1749 138 187 147 200 258 375
135 215 212 351 301 535 467 961 648 1974 541 3020 -22 217 -67 482 -111 655
-48 192 -59 234 -82 310 -27 92 -105 321 -128 383 -37 94 -50 126 -72 175 -12
29 -35 80 -49 115 -48 115 -197 401 -290 557 -253 427 -519 768 -873 1120
-102 102 -233 226 -291 276 -500 432 -1069 770 -1685 1002 -195 73 -530 176
-645 198 -14 3 -52 11 -85 19 -109 27 -337 65 -540 90 -171 22 -250 26 -540
30 -187 2 -394 0 -460 -5z m3220 -1190 c14 0 -155 -175 -530 -550 l-550 -550
-960 0 c-593 0 -993 -4 -1045 -10 -675 -82 -1253 -554 -1475 -1205 -56 -165
-95 -397 -95 -570 0 -180 42 -418 106 -600 39 -113 149 -323 218 -419 104
-145 175 -223 288 -321 249 -214 504 -341 825 -410 208 -45 515 -45 717 0 565
127 1010 480 1255 995 48 101 101 246 116 320 4 19 13 38 19 42 6 4 255 8 554
8 488 0 543 -2 549 -16 6 -16 -28 -213 -52 -294 -53 -186 -73 -249 -112 -350
-102 -266 -286 -579 -472 -800 -233 -279 -541 -529 -866 -705 -80 -43 -288
-135 -385 -170 -452 -163 -980 -208 -1460 -125 -480 84 -933 288 -1320 596
-197 156 -454 440 -606 669 -232 348 -389 770 -450 1210 -23 166 -23 573 0
740 73 523 265 987 580 1395 103 134 294 334 406 426 19 16 46 39 60 52 43 40
273 199 366 253 294 170 589 280 924 344 185 35 211 37 500 44 189 4 2327 5
2895 1z m-105 -6540 c0 -34 -87 -286 -141 -407 -180 -409 -407 -716 -764
-1035 -167 -150 -446 -325 -680 -427 -173 -76 -279 -113 -462 -161 -479 -126
-1057 -116 -1528 27 -248 74 -545 210 -740 337 -182 119 -475 359 -475 389 0
7 173 185 384 396 l383 383 55 -48 c106 -95 124 -109 217 -171 177 -119 407
-217 616 -264 218 -48 532 -48 752 1 398 88 767 316 1018 630 61 76 154 219
191 293 15 29 31 58 36 65 8 9 135 12 574 12 561 0 564 0 564 -20z"/>
</g>
</svg>
